<?xml version="1.0" encoding="utf-8"?>
<!-- Generator: Adobe Illustrator 26.4.1, SVG Export Plug-In . SVG Version: 6.00 Build 0)  -->
<svg version="1.1" id="Layer_1" xmlns="http://www.w3.org/2000/svg" xmlns:xlink="http://www.w3.org/1999/xlink" x="0px" y="0px"
	 viewBox="0 0 595.1 584" style="enable-background:new 0 0 595.1 584;" xml:space="preserve">
<style type="text/css">
	.st0{fill:#26276B;}
	.st1{fill:#FFFFFF;}
	.st2{fill:#E52B2C;}
	.st3{fill:#D82D2E;}
</style>
<path class="st1" d="M345.3,57.5c-0.1,0-0.1,0-0.2,0c-0.4-0.1-0.8-0.2-1.2-0.2c-2.2-0.5-4.3-0.9-6.5-1.3c0,0-0.1,0-0.1,0
	c-2.6-0.5-5.3-0.9-7.9-1.3c-10.6-1.5-21.5-2.3-32.5-2.4c-3.5,0-7,0.1-10.4,0.2c-0.1,0-0.2,0-0.2,0c-1.5,0.1-3,0.1-4.4,0.2
	c-6.1,0.4-12.1,1-18.1,1.9c-2.7,0.4-5.4,0.8-8,1.3c-0.1,0-0.2,0-0.3,0.1c-27.6,5.1-53.5,15.2-76.6,29.3c-2.5,1.5-4.9,3-7.3,4.6
	c-18,12-34.2,26.4-48.1,42.9c-1.8,2.1-3.6,4.3-5.3,6.5c-18.6,23.7-32.5,51.2-40.5,81.1c0,0,0,0,0,0c-5.6,19.9-8.6,41-8.6,62.7
	c0,127.2,102.5,230.7,228.5,230.7c126,0,228.5-103.5,228.5-230.7C526,172.5,448.5,79.8,345.3,57.5"/>
<path class="st1" d="M296.9,52.3c11,0,21.9,0.8,32.5,2.4c2.7,0.4,5.3,0.8,7.9,1.3c0,0,0.1,0,0.1,0c2.2,0.4,4.4,0.8,6.5,1.3
	c0.4,0.1,0.8,0.2,1.2,0.2c0.1,0,0.1,0,0.2,0C448.5,79.8,526,172.5,526,283.2c0,127.2-102.5,230.7-228.5,230.7
	C171.5,513.9,69,410.4,69,283.2c0-21.7,3-42.8,8.6-62.7c0,0,0,0,0,0c8-29.9,21.9-57.4,40.5-81.1c1.7-2.2,3.5-4.4,5.3-6.5
	c13.9-16.5,30.1-30.9,48.1-42.9c2.4-1.6,4.8-3.1,7.3-4.6c23.1-14.1,49-24.2,76.6-29.3c0.1,0,0.2,0,0.3-0.1c2.7-0.5,5.3-0.9,8-1.3
	c5.9-0.9,12-1.5,18.1-1.9c1.5-0.1,3-0.2,4.4-0.2c0.1,0,0.2,0,0.2,0C290,52.4,293.4,52.3,296.9,52.3 M296.9,44.2L296.9,44.2
	L296.9,44.2c-3.6,0-7.2,0.1-10.8,0.2c-0.1,0-0.2,0-0.2,0h0c-1.4,0.1-2.9,0.1-4.6,0.2h0h0c-6.2,0.4-12.5,1.1-18.7,2
	c-2.6,0.4-5.2,0.8-7.9,1.3h0l-0.7,0.1c-14.1,2.6-28.1,6.5-41.4,11.7c-13.1,5-25.9,11.3-37.9,18.7c-2.6,1.6-5.1,3.2-7.5,4.8
	c-18.6,12.4-35.4,27.3-49.8,44.4c-1.9,2.2-3.7,4.5-5.5,6.7c-9.6,12.3-18.1,25.6-25.1,39.6c-7.1,14.2-12.8,29.1-16.9,44.4l-1.9,7.2
	l0.1,0c-4.6,18.8-6.9,38.1-6.9,57.6C61,414.8,167.1,522,297.5,522c130.4,0,236.6-107.1,236.6-238.8c0-28-4.8-55.4-14.2-81.6
	c-4.6-12.6-10.2-24.9-16.8-36.6c-6.5-11.5-14.1-22.6-22.4-32.9c-8.3-10.3-17.6-19.9-27.5-28.6c-9.9-8.8-20.6-16.7-31.8-23.7
	c-11.3-7-23.3-13.2-35.6-18.2c-12.5-5.1-25.5-9.1-38.7-12l-0.1,0l0,0l0,0l0,0c-0.4-0.1-0.8-0.2-1.2-0.3c-2.3-0.5-4.6-0.9-6.8-1.3
	l0,0l-0.1,0c-2.7-0.5-5.5-0.9-8.2-1.3C319.5,45,308.2,44.2,296.9,44.2"/>
<path class="st0" d="M157.9,248.5c-18.3,0-32.1,12.9-32.1,30c0,17.3,13.8,30.4,32.1,30.4c18.3,0,32.2-13.1,32.2-30.4
	C190.1,261.4,176.3,248.5,157.9,248.5 M158.1,299c-10.7,0-19.4-9.1-19.4-20.4c0-11.3,8.5-20.2,19.4-20.2c10.7,0,19,8.9,19,20.2
	C177.2,290,168.8,299,158.1,299"/>
<path class="st0" d="M238,290.1l-1-1.6l1.7-0.8c6.8-3.4,10.4-9.8,10.4-18.6c0-13-8.6-20.1-24.3-20.1h-26.3v59.1H211v-15.9v-1.7h1.7
	h12.1h0.4h1l0.5,0.9l7,13.3l0,0c0.9,2,2.9,3.4,5.2,3.4h10.4L238,290.1z M224.8,281.4h-12.1H211v-1.7v-19.9v-1.7h1.7h12.1
	c8,0,12.6,4.2,12.6,11.5C237.4,277,232.7,281.4,224.8,281.4"/>
<path class="st0" d="M293.6,249h-7.1c-4.1,0-7.7,2.3-9.5,5.7l0,0l-23,53.4h8.7c2.3,0,4.3-1.4,5.2-3.3l2.8-7.1l0.4-1.1h1.2h27.3h1.2
	l0.4,1.1l2.8,7.2c0.9,1.9,2.9,3.2,5.1,3.2h9.3L293.6,249z M295,288h-18h-2.5l0.9-2.3l9.1-23.1l1.6-4.1l1.6,4.1l8.9,23.1l0.9,2.3H295
	z"/>
<path class="st0" d="M368.2,254.7v31.2v5.2l-3.1-4.1L336.7,249h-11.5v53.4c0,3.2,2.6,5.7,5.7,5.7h5.8v-36.8v-5.2l3.1,4.1l26.4,35.4
	c1.3,1.4,3.1,2.3,5.1,2.4h8.2V249h-5.7C370.8,249,368.2,251.5,368.2,254.7"/>
<path class="st0" d="M398.5,249c-3.4,0-6.2,2.8-6.2,6.2v0.1v52.8h12.5V249H398.5z"/>
<path class="st0" d="M466.6,253.7v-4.8h-50v9.4h17h1.7v1.7v48.1h12.5v-48.1v-1.7h1.7h13.4C465,257.9,466.6,256,466.6,253.7"/>
<path class="st2" d="M328.9,437.6c18,1.8,34.6,5,49.3,9.4c2.6-3.7,5.1-7.5,7.5-11.6c5.9-9.8,11.2-20.5,15.8-31.8
	c-20.7-4.3-42.9-7.3-66-8.9C333.6,410.3,331.4,424.7,328.9,437.6"/>
<path class="st2" d="M320.1,472.3c5.7,4,10.4,9.5,13.5,15.9c3.7-2,7.4-4.2,11.1-6.8c10.1-7.1,19.6-16.4,28.3-27.6
	c-13.9-4-29.4-6.8-45.8-8.3C325,455.6,322.7,464.6,320.1,472.3"/>
<path class="st2" d="M257.5,394.7c-23,1.6-45.2,4.6-65.9,9c4.6,11.3,9.9,21.9,15.7,31.7c2.5,4.1,5,8,7.6,11.7
	c14.6-4.4,31.2-7.7,49.2-9.5C261.6,424.7,259.4,410.3,257.5,394.7"/>
<path class="st2" d="M340.1,340.5c-0.9,16.2-2.2,31.6-3.7,46.1c24,1.7,46.9,4.9,68,9.3c3.6-9.7,6.8-19.8,9.5-30.4
	c3.3-13.1,5.8-26.6,7.6-40.3c-21.8,1.7-49.8,8.1-81.2,15.3C340.2,340.4,340.1,340.4,340.1,340.5"/>
<path class="st2" d="M220.1,454c8.7,11.1,18.1,20.3,28.2,27.5c3.7,2.6,7.4,4.9,11.2,6.9c3-6.4,7.7-11.9,13.4-15.9
	c-2.5-7.8-4.9-16.8-7.1-26.8C249.4,447.2,233.9,450,220.1,454"/>
<path class="st2" d="M296.8,385.2c10.7,0,21.2,0.3,31.5,0.9c1.5-13.9,2.7-28.5,3.6-43.7c-22.7,5.2-46.7,10.5-69.9,14.1
	c0.7,10.2,1.6,20.1,2.7,29.7C275.2,385.5,285.9,385.2,296.8,385.2"/>
<path class="st2" d="M327.4,394.2c-10.1-0.5-20.3-0.8-30.6-0.8c-10.5,0-20.9,0.3-31.2,0.9c1.8,15.4,4.1,29.7,6.6,42.7
	c8-0.6,16.2-0.9,24.5-0.9c8.2,0,16.2,0.3,24,0.9C323.3,423.8,325.5,409.5,327.4,394.2"/>
<path class="st2" d="M273.9,444.9c1.9,8.7,4,16.5,6.1,23.4c5-2.2,10.6-3.5,16.5-3.5c5.8,0,11.4,1.2,16.4,3.4
	c2.2-6.9,4.2-14.7,6.1-23.4c-7.3-0.5-14.7-0.8-22.3-0.8C289,444.1,281.4,444.4,273.9,444.9"/>
<path class="st2" d="M254,357.7c-20.5,2.9-40.4,4.3-58.1,3c-6.4-0.5-12.4-1-18.3-1.6c0.5,2.2,1,4.3,1.6,6.5
	c2.7,10.6,5.9,20.8,9.5,30.5c21.1-4.5,43.9-7.7,68-9.4C255.6,377.3,254.7,367.7,254,357.7"/>
<path class="st3" d="M345.3,57.5c-0.1,0-0.1,0-0.2,0c-0.4-0.1-0.8-0.2-1.2-0.2c-2.2-0.5-4.3-0.9-6.5-1.3c0,0-0.1,0-0.1,0
	c-2.6-0.5-5.3-0.9-7.9-1.3c-10.6-1.5-21.5-2.3-32.5-2.4c-3.5,0-7,0.1-10.4,0.2c-0.1,0-0.2,0-0.2,0c-1.5,0.1-3,0.1-4.4,0.2
	c-6.1,0.4-12.1,1-18.1,1.9c-2.7,0.4-5.4,0.8-8,1.3c-0.1,0-0.2,0-0.3,0.1c-27.6,5.1-53.5,15.2-76.6,29.3c-2.5,1.5-4.9,3-7.3,4.6
	c-18,12-34.2,26.4-48.1,42.9c-1.8,2.1-3.6,4.3-5.3,6.5c-18.6,23.7-32.5,51.2-40.5,81.1c0,0,0,0,0,0c-5.6,19.9-8.6,41-8.6,62.7
	c0,127.2,102.5,230.7,228.5,230.7c126,0,228.5-103.5,228.5-230.7C526,172.5,448.4,79.8,345.3,57.5 M479.6,159.3
	c10.3,15.7,18.5,32.6,24.4,50.3c-14.9-5-42.7-12.7-82.1-17.4c-2.8-11.1-6-21.7-9.8-31.8c20.4-4.7,39.1-10.7,55.5-17.6
	C471.9,148.1,475.9,153.6,479.6,159.3 M191.8,154.4c4.6-11.1,9.8-21.6,15.5-31.2c2.6-4.3,5.2-8.3,7.9-12.2
	c14.5,4.4,31.1,7.6,48.9,9.4c-2.5,12.9-4.8,27.3-6.6,42.9C234.6,161.8,212.5,158.7,191.8,154.4 M256.6,171.4
	c-1.3,12.1-2.4,24.9-3.3,38.2c-1,0.2-1.9,0.4-2.9,0.7l-0.2,0c-30.1,6.9-56.8,13-77.6,14.9c1.6-10.9,3.8-21.6,6.4-32.1
	c2.7-10.8,6-21.2,9.7-31C209.8,166.5,232.6,169.7,256.6,171.4 M264.7,171.9c10.5,0.6,21.2,0.9,32.1,0.9c10.7,0,21.2-0.3,31.5-0.9
	c0.8,7.1,1.5,14.5,2.1,22c-22.9,3.6-46.4,8.7-68.8,13.8C262.4,195.3,263.4,183.4,264.7,171.9 M296.8,122.1c8.2,0,16.2-0.3,23.9-0.9
	c2.6,13,4.8,27.4,6.6,42.7c-10.1,0.5-20.3,0.8-30.6,0.8c-10.5,0-20.9-0.3-31.2-0.9c1.8-15.4,4.1-29.7,6.6-42.7
	C280.2,121.7,288.4,122.1,296.8,122.1 M273.9,113.1c1.8-8.2,3.8-15.7,5.8-22.3c1,0.4,2,0.8,3,1.2c4.3,1.5,8.8,2.3,13.6,2.3
	c2.7,0,5.4-0.3,8-0.8c1.3-0.3,2.6-0.6,3.8-0.9c1.7-0.5,3.4-1.2,5-1.9c2.1,6.6,4,14.2,5.9,22.5c-7.3,0.5-14.7,0.8-22.3,0.8
	C289,113.9,281.4,113.7,273.9,113.1 M328.8,120.5c17.8-1.8,34.4-5,49-9.3c2.7,3.8,5.3,7.8,7.8,12c5.8,9.7,11,20.1,15.6,31.3
	c-20.7,4.3-42.8,7.3-65.8,8.9C333.6,147.8,331.4,133.4,328.8,120.5 M404.2,162.2c3.5,9.3,6.5,19,9.2,29.1c-5.2-0.5-10.6-1-16.1-1.4
	c-4.6-0.3-9.5-0.5-14.5-0.5c-14.1,0-29,1.3-44.3,3.4c-0.6-7.3-1.3-14.4-2-21.3C360.3,169.8,383.1,166.6,404.2,162.2 M431.8,107.2
	c11.1,8.7,21.3,18.5,30.4,29.1c-16,6.6-33.9,12.1-53,16.5c-6.6-16.4-14.5-31.2-23.4-44.2c11.2-3.9,21-8.4,29-13.5
	C420.7,98.8,426.4,102.9,431.8,107.2 M369.4,72.8c13.1,4.6,25.7,10.5,37.7,17.5c-3.9,2.3-8.2,4.4-13,6.5c-4.2,1.8-8.6,3.4-13.2,5
	c-12-15.9-25.7-28.5-40.5-37C350.2,66.8,359.9,69.4,369.4,72.8 M331.7,74.2c0.7-1.1,1.3-2.2,1.8-3.4c0.1-0.1,0.1-0.3,0.2-0.4
	c3.7,2,7.4,4.2,11,6.8c10,7,19.3,16.1,28,27.2c-13.8,3.9-29.2,6.7-45.5,8.2c-2.1-9.7-4.4-18.4-6.8-26c1.5-1.1,2.9-2.2,4.2-3.5
	c0.9-0.9,1.8-1.8,2.6-2.7C328.9,78.4,330.4,76.4,331.7,74.2 M297.5,60.4c10.3,0,20.5,0.7,30.4,2.1c0,0,0,0.1,0,0.1
	c-0.5,1.4-1,2.8-1.7,4.2c-2.1,4.3-5.1,8.1-8.8,11.1c-2.1,1.7-4.5,3.2-7,4.4c-4.2,1.9-8.9,3-13.8,3c-5,0-9.7-1.1-13.9-3.1
	c-2.5-1.2-4.9-2.7-7-4.4c-3.6-3-6.6-6.8-8.7-11c-0.6-1.3-1.2-2.6-1.6-4C275.8,61.2,286.5,60.4,297.5,60.4 M259,70.5
	c0.1,0.2,0.1,0.3,0.2,0.5c1.1,2.3,2.4,4.5,3.9,6.5c0.7,1,1.5,2,2.4,3c2.1,2.4,4.4,4.5,7,6.3c-2.4,7.5-4.7,16.1-6.7,25.7
	c-16.2-1.6-31.6-4.4-45.4-8.3c8.6-10.9,17.9-20,27.9-27C251.8,74.6,255.4,72.4,259,70.5 M251.8,65.2c-14.5,8.4-27.9,20.8-39.7,36.4
	c-4.4-1.5-8.7-3.1-12.8-4.8c-4.6-2-8.9-4.1-12.7-6.3C206.6,78.8,228.6,70.1,251.8,65.2 M178.9,95.3c7.9,5,17.4,9.4,28.2,13.2
	c-8.9,13-16.8,27.8-23.4,44.2c-18.8-4.3-36.4-9.8-52.2-16.3C145.3,120.6,161.3,106.7,178.9,95.3 M88.4,212.1
	c8.5-25.4,21.3-48.8,37.7-69.2c16.2,6.8,34.6,12.7,54.7,17.3c-7.4,20-13,42-16.4,65.4c-1.2,0-2.5,0.1-3.6,0.1c-1.2,0-2.4,0-3.5-0.1
	c-26.3-1-50.2-4.6-69.8-10.5C87.8,214.1,88.1,213.1,88.4,212.1 M295.8,505.9c0.2,0,0.3,0,0.5,0h0C296.1,505.9,296,505.9,295.8,505.9
	 M473.3,417.7c-1.7,2.2-3.4,4.4-5.1,6.6c-0.9-0.4-1.7-0.8-2.6-1.1c-16.8-7.2-35.7-13.1-56-17.8c-6.6,16.4-14.4,31.2-23.3,44.2
	c14.3,4.9,26.2,11,35.2,17.9c-2.4,1.6-4.8,3.2-7.2,4.7c-5.5-3.9-12.2-7.6-20-10.9c-4.1-1.7-8.4-3.4-12.9-4.8
	c-13.2,17.6-28.4,31.1-44.9,39.5c0.5,2,0.9,4.1,1,6.3c1.7-0.3,3.5-0.7,5.2-1c-14.6,3.1-29.7,4.7-45.1,4.7c-0.2,0-0.3,0-0.5,0
	c11,0,21.8-0.8,32.4-2.3c-0.1-1.4-0.3-2.8-0.5-4.1c-0.5-2.7-1.4-5.3-2.6-7.7c-2.1-4.4-5.2-8.3-8.9-11.4c-2.1-1.7-4.5-3.2-7-4.4
	c-4.2-1.9-8.8-3-13.7-3c-4.9,0-9.6,1.1-13.9,3.1c-2.5,1.2-4.9,2.7-7,4.4c-3.7,3.1-6.8,6.9-8.9,11.3c-1.2,2.4-2,5-2.6,7.7
	c-0.2,1.3-0.4,2.5-0.5,3.8c-2.7-0.4-5.4-0.9-8-1.4c0.2-2,0.5-4,1-5.9c-16.5-8.4-31.7-21.9-44.9-39.5c-4.3,1.5-8.5,3-12.4,4.7
	c-7.5,3.2-14,6.7-19.3,10.5c-2.4-1.5-4.8-3.1-7.2-4.8c8.8-6.6,20.3-12.5,34-17.3c-8.9-13-16.7-27.9-23.3-44.3
	c-20.2,4.6-38.9,10.6-55.5,17.7c-0.5,0.2-1,0.5-1.6,0.7c-1.7-2.2-3.5-4.4-5.1-6.6c17.2-7.7,37.2-14.2,59.3-19.4
	C176,385.3,172.1,372,169,358c-44.9-5.5-73.9-15-85.1-19.2C79.4,321,77,302.4,77,283.2c0-20.9,2.8-41.1,8.2-60.2
	c20.2,6.1,44.8,9.8,71.8,10.9c1.3,0,2.5,0.1,3.8,0.1c0.8,0,1.7,0,2.5,0c2.6-0.1,5.4-0.2,8.2-0.4c21.8-1.7,49.5-8.1,80.7-15.2
	c0.2,0,0.4-0.1,0.6-0.1c2.7-0.6,5.5-1.3,8.2-1.9c22.8-5.2,46.7-10.5,69.9-14.1c2.7-0.4,5.4-0.8,8-1.2c15.2-2.1,29.9-3.4,43.7-3.4
	c4.8,0,9.4,0.2,13.9,0.5c6.5,0.5,12.8,1.1,18.8,1.7c2.9,0.3,5.8,0.6,8.5,1c45.2,5.6,74.2,15.2,85,19.3c5.9,20.1,9,41.3,9,63.3
	c0,18.6-2.2,36.6-6.5,53.8c-21-6.9-47.1-11.1-75.9-12.2c-1.9-0.1-3.9-0.1-5.9,0c-3.2,26.2-9.1,50.8-17.3,72.9
	C435.1,403,455.6,409.7,473.3,417.7"/>
</svg>
